<?xml version="1.0" standalone="no"?>
<!DOCTYPE svg PUBLIC "-//W3C//DTD SVG 20010904//EN"
 "http://www.w3.org/TR/2001/REC-SVG-20010904/DTD/svg10.dtd">
<svg version="1.0" xmlns="http://www.w3.org/2000/svg"
 width="940.000000pt" height="939.000000pt" viewBox="0 0 940.000000 939.000000"
 preserveAspectRatio="xMidYMid meet">

<g transform="translate(0.000000,939.000000) scale(0.100000,-0.100000)"
fill="#000000" stroke="none">
<path d="M9330 4695 l0 -4695 35 0 35 0 0 4695 0 4695 -35 0 -35 0 0 -4695z"/>
<path d="M4495 7692 c-40 -8 -37 -21 6 -20 52 1 91 -10 86 -25 -4 -14 -93 -20
-116 -7 -14 7 -20 6 -24 -4 -3 -8 -26 -14 -63 -15 -31 -1 -61 -4 -67 -8 -5 -3
-14 1 -19 8 -7 11 -11 11 -15 2 -2 -7 -12 -13 -20 -13 -23 0 -103 -49 -103
-63 0 -10 -46 -37 -130 -75 -26 -12 -35 -18 -110 -66 -25 -16 -83 -51 -130
-79 -93 -54 -206 -141 -258 -197 -60 -65 -229 -334 -302 -480 -32 -65 -90
-250 -90 -289 0 -21 -6 -54 -14 -72 -8 -19 -20 -82 -26 -139 -6 -58 -18 -122
-25 -142 -17 -44 -39 -235 -39 -333 0 -112 8 -224 16 -212 3 6 8 -25 11 -69 6
-99 22 -219 40 -305 18 -79 12 -125 -39 -305 -76 -270 -95 -351 -99 -433 -4
-78 -14 -123 -16 -70 0 15 -8 1 -20 -36 -24 -76 -23 -106 1 -40 22 61 24 50 5
-30 -7 -33 -10 -64 -5 -68 4 -5 11 18 15 50 10 92 20 91 23 -2 1 -65 -2 -85
-12 -85 -15 0 -26 -55 -29 -144 -1 -37 -7 -61 -14 -63 -8 -3 -13 4 -13 18 0
12 -2 20 -5 17 -10 -9 7 -98 18 -91 5 3 8 0 6 -6 -7 -20 -24 -14 -30 11 -7 26
-11 19 -29 -49 -7 -30 -22 -51 -52 -75 -51 -40 -93 -81 -93 -90 0 -8 -18 -35
-57 -86 -16 -19 -28 -38 -28 -42 0 -4 -14 -25 -31 -46 -33 -40 -99 -174 -99
-200 0 -27 18 -14 24 19 4 17 15 48 26 67 10 19 26 50 34 68 22 46 59 89 74
84 7 -2 12 1 12 8 0 6 -4 8 -10 5 -5 -3 -10 -1 -10 4 0 6 4 11 10 11 5 0 16
12 25 28 22 41 74 97 82 89 3 -4 -6 -20 -22 -37 -15 -16 -29 -40 -30 -54 -3
-27 -33 -73 -77 -120 -41 -43 -27 -43 15 -1 36 36 64 39 53 6 -5 -12 -2 -11 9
3 8 11 15 25 15 32 0 7 4 15 9 18 5 4 7 -4 5 -16 -2 -13 3 -5 11 17 23 58 35
66 35 22 0 -37 -27 -107 -42 -107 -4 0 -8 -8 -8 -17 0 -14 4 -12 25 7 29 28
31 21 8 -39 -14 -37 -18 -41 -25 -25 -6 14 -7 11 -4 -10 5 -36 -10 -80 -24
-71 -5 3 -10 -2 -11 -12 -1 -12 -3 -10 -8 7 -7 25 -7 25 -14 -6 -7 -37 -30
-49 -52 -28 -9 9 -15 11 -15 4 0 -6 -11 -22 -25 -34 -14 -13 -25 -28 -24 -32
5 -21 -15 -44 -37 -44 -19 0 -24 -5 -24 -24 0 -24 -39 -82 -40 -58 0 17 -21
15 -35 -5 -12 -16 -16 -16 -52 -1 -37 14 -41 14 -55 -4 -11 -14 -41 -23 -104
-33 -208 -33 -352 -89 -438 -168 l-41 -38 51 35 c125 87 275 135 470 151 l87
8 -21 -31 c-12 -16 -22 -36 -22 -42 0 -12 -28 -10 -78 5 -19 6 -21 5 -15 -11
4 -11 22 -39 40 -63 66 -86 124 -233 154 -389 12 -63 7 -280 -7 -329 -9 -31
-24 -29 -24 2 0 14 5 25 10 25 6 0 10 5 10 10 0 7 -6 7 -19 0 -11 -5 -21 -10
-23 -10 -2 0 -3 53 -3 117 0 185 -12 270 -51 351 -12 26 -19 32 -36 26 -18 -5
-20 -3 -15 18 10 38 -5 42 -20 6 -11 -25 -11 -33 -1 -40 10 -6 9 -11 -4 -19
-10 -5 -18 -19 -18 -29 0 -11 -7 -20 -15 -20 -8 0 -15 7 -15 15 0 8 -4 15 -10
15 -5 0 -9 -10 -9 -22 1 -50 -14 -168 -22 -168 -5 0 -9 -11 -9 -25 0 -14 -4
-25 -10 -25 -5 0 -10 4 -10 10 0 5 -10 12 -23 15 -13 4 -31 17 -41 31 -11 13
-29 24 -42 24 -29 0 -31 -23 -9 -120 51 -226 64 -306 69 -431 6 -169 14 -241
31 -304 8 -27 21 -97 30 -155 19 -131 32 -190 55 -260 17 -51 35 -125 75 -311
15 -70 29 -276 18 -265 -3 2 -15 44 -28 93 -80 302 -134 463 -169 504 -37 43
-68 82 -163 209 -40 52 -76 100 -81 105 -4 6 -34 48 -66 95 -68 99 -78 111
-76 90 1 -8 2 -26 1 -40 -2 -24 -3 -24 -11 -4 -11 27 -36 37 -61 24 -17 -10
-19 -7 -19 25 l0 35 22 -22 c16 -16 23 -18 26 -8 3 7 -3 17 -11 22 -9 5 -14
15 -10 24 4 12 8 12 21 2 13 -11 14 -10 7 12 -4 14 -21 49 -37 77 -33 59 -56
81 -44 42 4 -13 7 -70 6 -126 -1 -67 2 -103 9 -103 7 0 11 -23 11 -54 0 -30 5
-58 10 -61 6 -3 10 -24 10 -46 0 -21 4 -39 9 -39 15 0 25 -52 22 -117 -2 -78
13 -138 45 -170 29 -29 48 -65 70 -130 21 -64 77 -187 87 -191 20 -9 49 -89
48 -134 0 -26 4 -50 9 -53 6 -4 11 8 11 27 1 19 5 8 10 -29 14 -113 17 -125
36 -139 13 -11 15 -17 6 -20 -7 -3 -13 -15 -12 -27 0 -12 3 -16 6 -9 2 6 11
12 19 12 8 0 14 4 14 9 0 5 6 11 13 14 9 3 11 -7 8 -39 -2 -35 0 -44 13 -44
21 0 21 -39 0 -69 -9 -12 -37 -41 -61 -64 -40 -37 -98 -134 -117 -194 l-7 -23
312 0 312 0 -6 62 c-17 172 -19 316 -6 403 8 56 13 184 14 340 l0 250 23 3
c12 2 22 -1 22 -7 0 -13 68 -43 80 -36 11 7 40 -5 40 -17 0 -5 -4 -6 -10 -3
-5 3 -10 1 -10 -4 0 -6 9 -11 20 -11 32 0 78 -27 85 -50 4 -12 15 -20 29 -20
13 0 43 -13 67 -30 24 -16 50 -30 56 -30 7 0 15 -11 19 -25 7 -27 40 -43 57
-26 7 7 14 6 22 -6 10 -13 15 -13 35 -3 12 7 25 8 29 4 3 -5 27 -9 54 -10 42
0 47 2 47 22 0 17 7 23 34 26 19 2 33 1 30 -3 -8 -13 19 -59 33 -59 22 0 91
-72 98 -103 8 -29 25 -47 25 -26 0 21 18 -3 23 -31 2 -14 5 -1 6 28 1 49 2 52
24 47 18 -5 28 1 49 30 14 20 29 36 32 36 22 -3 26 5 26 54 0 51 2 55 27 61
14 4 34 2 45 -5 23 -14 56 4 64 37 4 12 12 22 20 22 7 0 28 16 45 35 17 19 34
33 38 32 9 -3 81 57 81 68 0 6 9 16 19 22 11 7 32 33 46 58 29 48 41 56 47 28
2 -10 7 5 12 32 4 28 12 65 17 82 12 38 66 103 86 103 7 0 13 4 13 9 0 5 16
12 35 15 45 9 65 -10 65 -61 0 -21 8 -50 17 -63 l18 -25 8 65 c4 36 8 97 8
135 l1 70 8 -60 c4 -33 13 -118 20 -190 15 -168 45 -354 71 -441 12 -38 34
-116 50 -174 28 -103 38 -135 55 -175 7 -18 6 -18 -9 -6 -9 7 -17 20 -17 27 0
18 -48 155 -56 163 -19 17 9 -102 35 -154 37 -72 40 -97 10 -69 -14 12 -38 19
-72 21 -43 1 -51 4 -49 19 3 12 -1 15 -13 10 -9 -3 -20 -6 -24 -6 -11 0 -51
-74 -52 -96 -1 -11 -5 8 -10 40 -5 33 -13 64 -19 70 -5 5 -10 22 -10 37 0 15
-7 32 -15 39 -19 16 -19 15 5 -55 11 -32 20 -74 20 -94 0 -20 9 -68 20 -106
14 -45 23 -115 27 -198 3 -70 10 -127 15 -127 5 0 6 50 2 122 -8 137 -8 133
-6 169 l2 26 36 -33 c36 -34 57 -37 52 -6 -2 13 4 16 29 14 44 -5 73 13 73 44
0 16 4 23 11 18 6 -3 9 -15 6 -25 -7 -25 9 -34 21 -13 8 14 10 13 15 -7 3 -13
9 -88 13 -166 l7 -143 83 0 c97 0 97 0 68 100 -28 101 -33 179 -13 236 17 50
16 53 -2 83 -11 18 -27 31 -39 31 -17 0 -20 7 -20 39 0 21 6 44 13 50 8 6 22
29 32 51 10 22 22 40 27 40 4 0 8 6 8 13 0 13 73 92 128 139 15 13 33 35 41
50 7 14 26 40 42 58 16 17 29 33 29 36 0 3 14 17 30 31 17 13 30 29 30 33 0 5
13 29 29 52 16 24 32 57 36 73 20 95 28 115 46 115 12 0 21 9 24 25 3 14 8 37
12 52 3 16 5 38 4 50 -1 13 8 33 22 46 13 14 29 40 37 58 7 19 24 44 36 57
l24 22 39 -24 c22 -14 42 -30 46 -36 10 -16 -15 -12 -32 5 -23 23 -27 11 -8
-19 10 -14 14 -26 11 -26 -4 0 -2 -8 3 -18 7 -13 7 -22 -1 -30 -8 -8 -8 -15 1
-26 7 -8 10 -24 6 -35 -3 -10 -10 -54 -16 -98 -6 -43 -15 -105 -20 -138 -4
-33 -11 -88 -15 -123 -4 -34 -11 -62 -15 -62 -13 0 -11 -59 5 -110 9 -31 10
-50 3 -61 -15 -24 0 -69 22 -69 19 0 31 -34 31 -92 0 -16 6 -39 14 -51 7 -12
14 -38 14 -58 1 -40 13 -74 37 -103 15 -19 15 -19 29 -1 8 11 19 16 30 12 13
-5 16 0 16 24 0 26 3 30 18 23 9 -4 45 -10 79 -12 l62 -4 -4 -66 c-2 -37 -8
-68 -14 -70 -6 -2 -11 -16 -11 -31 0 -20 7 -31 25 -39 21 -10 25 -19 25 -52 0
-30 4 -40 16 -40 14 0 16 -8 11 -55 -5 -49 -4 -55 13 -55 10 0 21 8 23 17 4
17 5 17 6 1 1 -17 18 -18 205 -18 203 0 204 0 210 23 3 12 6 37 6 55 0 17 4
32 8 32 4 0 18 36 31 80 13 44 28 80 32 80 4 0 9 10 11 22 2 12 9 23 16 26 19
6 1 -157 -33 -290 l-7 -28 56 0 c46 0 56 3 57 18 0 14 2 14 9 -3 6 -14 8 3 8
50 0 52 -2 61 -7 35 l-7 -35 -7 49 c-7 52 -2 70 13 46 8 -12 10 -11 10 7 0 12
-6 23 -12 26 -10 3 -10 9 0 28 7 13 12 33 11 44 -1 11 -1 36 1 55 l2 35 9 -40
c4 -22 8 -102 8 -177 l1 -138 300 0 c252 0 300 2 300 14 0 8 -5 16 -11 18 -17
6 8 270 27 284 8 6 14 21 14 33 0 11 9 30 20 41 11 11 20 28 20 37 0 19 12 58
50 163 50 140 60 175 75 280 17 112 24 449 10 533 -6 37 -12 48 -29 53 -21 5
-21 7 -13 127 5 67 13 124 18 125 5 2 9 25 9 50 0 26 9 99 20 162 24 139 25
233 4 291 -8 24 -17 52 -19 61 -2 9 -9 26 -15 38 -13 24 -8 136 7 165 6 11 16
43 23 70 7 28 14 58 17 68 10 33 -12 16 -36 -28 -18 -34 -27 -43 -36 -35 -9 8
-23 4 -50 -15 -21 -14 -34 -25 -29 -25 10 0 -17 -20 -27 -20 -3 0 -5 42 -3 94
4 99 0 126 -20 126 -16 0 -38 63 -30 84 4 9 2 16 -2 14 -5 -2 -21 8 -34 20
-35 33 -80 54 -192 92 -105 35 -98 27 -119 135 -18 89 -22 142 -9 125 12 -16
12 -17 -10 185 -5 44 -15 114 -24 155 -8 41 -17 92 -21 114 -3 21 -9 35 -12
32 -7 -7 -73 129 -73 150 0 24 -61 174 -71 174 -13 0 -11 -11 7 -31 9 -10 14
-24 12 -31 -3 -8 -12 0 -21 19 -9 17 -14 39 -11 48 4 9 0 23 -8 33 -10 10 -15
38 -16 72 l0 55 19 -40 c11 -22 18 -50 15 -63 -2 -12 1 -25 5 -28 5 -3 9 1 10
8 1 23 18 -26 18 -54 1 -16 5 -28 10 -28 5 0 12 -8 14 -17 3 -12 5 -8 6 9 0
15 -3 30 -9 33 -5 3 -10 16 -10 28 0 13 -6 31 -14 42 -7 11 -28 65 -47 120
-18 55 -41 111 -51 124 -10 13 -18 28 -18 33 0 4 -12 27 -27 51 -20 31 -26 54
-26 94 0 29 -3 50 -7 48 -13 -8 -34 56 -33 99 1 33 0 36 -6 16 -6 -20 -8 -15
-13 30 -4 30 -16 77 -28 104 -16 35 -20 58 -16 85 4 23 3 31 -2 22 -7 -9 -15
16 -27 80 -12 65 -13 95 -6 97 6 2 11 22 12 45 1 48 26 203 28 170 1 -12 6
-25 13 -29 8 -5 9 2 4 27 -3 19 -11 36 -16 37 -6 2 -10 11 -10 20 0 14 2 15 9
3 12 -19 20 122 23 432 2 193 5 234 16 220 17 -23 15 -3 -3 41 -9 21 -20 34
-26 30 -8 -4 -9 1 -4 16 8 25 -8 95 -36 156 -11 22 -19 48 -19 58 0 10 -13 58
-30 108 -32 95 -38 134 -18 122 6 -4 4 3 -5 17 -9 13 -17 34 -17 46 0 13 -4
23 -8 23 -5 0 -14 18 -21 40 -7 22 -16 38 -21 35 -5 -3 -12 0 -16 6 -4 8 -3 9
4 5 7 -4 12 -1 12 8 0 21 -32 86 -42 86 -4 0 -8 5 -8 10 0 19 -120 256 -140
278 -11 12 -20 24 -20 27 0 20 -233 273 -298 323 -43 33 -91 73 -107 90 -37
37 -98 72 -127 72 -12 0 -30 8 -40 17 -17 15 -18 15 -13 0 6 -13 1 -16 -27
-14 -18 1 -39 6 -45 10 -7 5 -17 5 -23 2 -5 -3 -26 -3 -45 1 -25 4 -35 11 -31
20 3 8 1 14 -3 14 -5 0 -11 -4 -13 -9 -4 -12 -156 4 -203 22 -21 8 -41 20 -43
26 -5 14 -52 15 -52 1 0 -5 -4 -10 -9 -10 -5 0 -7 9 -4 19 4 15 -1 19 -19 19
-12 0 -36 2 -53 4 -16 3 -39 3 -50 0z m-253 -118 c-24 -17 -39 -14 -27 5 3 6
16 11 28 11 l21 0 -22 -16z m398 6 c0 -5 -2 -10 -4 -10 -3 0 -8 5 -11 10 -3 6
-1 10 4 10 6 0 11 -4 11 -10z m-333 -6 c-3 -3 -12 -4 -19 -1 -8 3 -5 6 6 6 11
1 17 -2 13 -5z m1570 -856 c-3 -8 -6 -5 -6 6 -1 11 2 17 5 13 3 -3 4 -12 1
-19z m-1305 -98 c7 -16 20 -30 29 -30 9 0 22 -6 28 -14 6 -7 31 -19 56 -26 47
-13 81 -40 51 -40 -9 0 -16 -4 -16 -10 0 -5 6 -10 13 -10 20 0 42 -29 57 -77
12 -39 30 -58 30 -32 0 5 5 7 10 4 6 -3 10 -31 10 -61 0 -30 -4 -54 -10 -54
-5 0 -10 -11 -10 -25 0 -19 5 -25 23 -25 23 -1 81 -29 59 -30 -10 0 -10 -5 -1
-21 6 -13 14 -17 18 -11 4 7 13 5 26 -4 12 -9 16 -18 10 -22 -14 -10 -19 -62
-6 -62 6 0 11 9 11 20 0 21 24 28 35 10 3 -5 15 -10 26 -10 31 0 12 -18 -26
-26 -20 -3 -35 -12 -35 -20 0 -8 5 -14 11 -14 5 0 7 -5 3 -11 -4 -6 -9 -7 -13
-2 -3 5 -20 10 -38 11 -26 2 -32 -2 -35 -20 -2 -19 -10 -24 -42 -26 -32 -3
-48 -12 -83 -50 -24 -25 -43 -49 -43 -52 0 -3 -13 -19 -29 -34 -27 -26 -29
-32 -24 -80 3 -28 10 -52 14 -54 4 -2 13 -20 20 -40 10 -32 13 -34 20 -17 6
15 8 9 8 -20 -1 -22 -3 -34 -6 -26 -4 10 -11 3 -22 -20 -16 -33 -16 -36 6 -74
19 -33 22 -49 17 -90 -6 -49 -5 -51 38 -90 23 -22 60 -49 80 -59 36 -19 36
-20 17 -37 -23 -20 -26 -37 -2 -18 11 10 17 11 20 3 2 -7 12 -10 22 -7 23 6
36 -12 37 -52 0 -16 4 -38 8 -47 6 -13 -3 -29 -33 -60 -41 -41 -43 -42 -81
-31 -47 12 -55 6 -65 -49 -6 -29 -3 -40 15 -58 18 -18 24 -19 37 -8 13 10 19
8 39 -17 38 -48 31 -106 -11 -95 -24 6 -91 -2 -123 -15 -44 -19 -51 -19 -26 0
12 9 14 14 6 15 -12 0 -69 -38 -99 -66 -6 -6 -10 -20 -7 -30 3 -12 -4 -28 -20
-43 -32 -30 -33 -41 -2 -35 33 6 86 -41 86 -77 0 -44 -10 -58 -46 -65 -18 -3
-38 -12 -44 -19 -7 -9 -21 -10 -44 -5 -49 11 -117 3 -215 -26 -47 -14 -113
-28 -146 -31 -58 -6 -75 -15 -75 -40 0 -20 29 -41 50 -36 11 3 31 -2 45 -11
30 -20 35 -20 35 -2 0 18 52 15 58 -3 2 -6 10 -11 17 -11 8 0 17 -9 20 -20 4
-11 10 -18 15 -15 20 12 80 -37 79 -65 0 -10 -2 -11 -6 -2 -7 17 -48 15 -63
-3 -17 -21 9 -49 66 -71 42 -16 56 -36 34 -49 -5 -3 -10 -15 -10 -25 0 -15 11
-20 58 -26 31 -5 60 -9 65 -10 4 -1 17 -2 30 -3 35 -2 65 -27 50 -42 -16 -16
-5 -39 26 -51 l26 -10 -23 -18 -23 -19 25 -3 c24 -3 24 -4 9 -40 -8 -21 -21
-38 -29 -38 -8 0 -15 -7 -15 -15 -1 -8 -3 -19 -4 -25 -1 -5 -3 -17 -4 -26 0
-8 -5 -12 -11 -9 -5 3 -7 0 -4 -8 7 -18 -32 -47 -63 -47 -12 0 -57 -5 -100
-12 -59 -9 -72 -13 -53 -18 32 -9 90 -39 90 -47 0 -3 -8 -12 -17 -19 -15 -10
-16 -15 -5 -25 6 -7 12 -22 12 -33 0 -17 2 -18 10 -6 8 13 10 12 10 -3 0 -10
-7 -28 -16 -42 -8 -13 -16 -37 -16 -54 -1 -31 -26 -50 -48 -36 -5 3 -10 1 -10
-4 0 -6 -21 -11 -47 -11 -49 0 -113 18 -113 32 0 4 -7 8 -16 8 -31 0 -43 31
-37 98 4 42 2 62 -5 62 -7 0 -9 11 -6 29 5 25 2 30 -25 42 -33 15 -39 25 -18
32 8 3 4 13 -12 31 -24 26 -24 26 -3 26 11 0 23 -4 27 -10 3 -5 12 -7 19 -4 9
4 -14 32 -67 82 -201 190 -243 232 -303 306 -128 159 -179 295 -224 588 -43
286 -69 408 -86 401 -10 -4 -14 4 -13 28 0 29 2 31 10 14 7 -15 8 -9 4 20 -19
135 -17 190 19 395 49 282 102 461 141 476 7 3 20 22 28 42 8 20 29 50 46 66
17 17 34 45 37 64 4 20 10 29 14 22 9 -14 50 25 50 47 0 8 5 11 10 8 6 -3 10
-1 10 5 0 25 92 167 122 190 51 38 124 70 348 152 30 11 62 23 70 27 9 5 22 1
35 -11 19 -19 20 -19 24 -1 5 26 20 33 73 33 42 0 48 -3 60 -30z m-752 -339
c-6 -12 -15 -21 -21 -21 -6 0 -8 4 -5 9 3 4 11 21 17 37 9 22 13 25 16 12 2
-9 -1 -26 -7 -37z m-36 -46 c-4 -8 -8 -15 -10 -15 -2 0 -4 7 -4 15 0 8 4 15
10 15 5 0 7 -7 4 -15z m-34 -23 c0 -11 -9 -29 -20 -42 -24 -28 -25 -24 -5 24
17 40 25 46 25 18z m1640 -233 c0 -6 -4 -7 -10 -4 -5 3 -10 11 -10 16 0 6 5 7
10 4 6 -3 10 -11 10 -16z m-2313 -66 c-3 -10 -5 -4 -5 12 0 17 2 24 5 18 2 -7
2 -21 0 -30z m2403 -13 c0 -5 -2 -10 -4 -10 -3 0 -8 5 -11 10 -3 6 -1 10 4 10
6 0 11 -4 11 -10z m-14 -162 c27 0 34 -4 34 -19 0 -10 6 -19 14 -19 21 0 31
-21 15 -30 -22 -14 9 -40 47 -40 23 0 34 -5 35 -15 1 -8 3 -19 4 -25 1 -5 3
-22 4 -36 0 -14 5 -22 11 -19 6 4 10 -7 10 -25 0 -17 4 -29 9 -26 5 4 11 -18
14 -46 2 -29 10 -93 16 -141 15 -106 7 -162 -44 -322 -20 -61 -39 -117 -42
-125 -9 -23 -10 -27 -34 -152 -13 -65 -26 -118 -30 -118 -4 0 -4 15 1 33 4 17
11 55 14 82 4 38 3 46 -5 32 -6 -11 -11 -35 -11 -55 0 -19 -9 -52 -19 -71 -20
-39 -41 -121 -40 -158 1 -14 -4 -20 -12 -17 -9 3 -13 -6 -13 -31 0 -20 -5 -39
-10 -43 -6 -4 -18 -27 -28 -52 -10 -24 -27 -53 -39 -65 -12 -11 -28 -33 -35
-49 -9 -21 -18 -27 -32 -23 -11 3 -20 0 -20 -6 0 -20 -48 39 -52 64 -2 13 -9
23 -16 22 -8 -2 -12 17 -12 66 0 39 -4 72 -8 75 -5 3 -14 38 -21 78 -7 40 -18
85 -23 100 -5 15 -7 42 -2 60 4 18 6 54 5 81 -1 33 2 47 11 47 17 0 38 46 38
82 0 27 -16 67 -33 79 -4 3 -10 22 -14 42 -4 28 -2 37 8 37 8 0 20 9 27 20 9
15 23 20 57 20 34 0 47 4 52 17 4 9 1 19 -5 21 -15 5 -16 29 -1 34 6 2 14 19
18 38 5 24 16 39 41 53 19 11 41 28 48 38 7 10 20 19 28 19 8 0 14 7 14 15 0
11 11 15 40 15 l40 0 0 54 c0 30 4 56 9 58 10 4 -9 138 -21 138 -4 0 -8 9 -8
21 0 11 -16 40 -36 65 -21 26 -34 50 -30 59 3 8 -4 23 -15 34 -20 19 -18 48 2
35 6 -3 26 -6 45 -6z m-456 -154 c0 -8 -4 -12 -10 -9 -5 3 -10 10 -10 16 0 5
5 9 10 9 6 0 10 -7 10 -16z m225 -43 c17 -19 16 -21 -16 -40 -19 -12 -47 -21
-62 -21 l-28 0 27 35 c14 19 30 32 35 29 5 -3 9 0 9 5 0 17 15 13 35 -8z
m-255 -36 c14 -19 14 -19 -2 -6 -10 7 -18 18 -18 24 0 6 1 8 3 6 1 -2 9 -13
17 -24z m-1503 -513 c28 -23 35 -38 47 -100 15 -84 12 -89 -49 -78 -44 9 -62
41 -64 115 -3 96 11 110 66 63z m2050 -454 c-3 -8 -6 -5 -6 6 -1 11 2 17 5 13
3 -3 4 -12 1 -19z m737 -383 c7 -29 7 -29 -8 -10 -8 11 -16 29 -16 40 0 27 16
7 24 -30z m-3297 -152 c-3 -10 -5 -4 -5 12 0 17 2 24 5 18 2 -7 2 -21 0 -30z
m-1 -45 c-4 -13 -12 -49 -18 -80 -6 -32 -15 -58 -19 -58 -4 0 -3 15 2 32 5 18
9 47 9 65 0 38 9 63 22 63 6 0 8 -10 4 -22z m3383 -80 c10 -30 9 -31 -4 -14
-8 11 -15 26 -15 33 0 22 8 14 19 -19z m21 -110 c0 -8 5 -19 10 -24 6 -6 12
-26 15 -45 2 -19 7 -47 10 -64 6 -30 6 -30 -12 5 -10 19 -25 62 -32 95 -8 33
-18 64 -23 70 -4 5 -8 13 -8 18 0 5 9 -2 20 -16 11 -14 20 -31 20 -39z m-1715
-8 c3 -5 1 -10 -4 -10 -6 0 -11 5 -11 10 0 6 2 10 4 10 3 0 8 -4 11 -10z
m1810 -200 c22 -90 38 -171 37 -195 -1 -57 -6 -84 -14 -79 -4 3 -8 22 -8 42 0
20 -5 55 -11 77 -6 22 -16 73 -22 113 -7 41 -15 70 -19 66 -10 -9 -10 28 -2
51 9 24 18 6 39 -75z m-3602 -20 c-7 -28 -13 -25 -13 6 0 14 4 23 9 20 5 -3 7
-15 4 -26z m-42 -107 c-10 -17 -10 -16 -11 3 0 23 13 41 18 25 2 -6 -1 -18 -7
-28z m3692 -213 c-3 -11 -7 -20 -9 -20 -2 0 -4 9 -4 20 0 11 4 20 9 20 5 0 7
-9 4 -20z m-3903 -155 c0 -14 -4 -25 -10 -25 -11 0 -14 33 -3 43 11 11 13 8
13 -18z m4301 -638 c-8 -8 -11 -7 -11 4 0 20 13 34 18 19 3 -7 -1 -17 -7 -23z
m-20 -79 c-8 -28 -9 -30 -10 -8 -1 34 12 80 17 58 2 -9 -1 -31 -7 -50z m-28
-175 c-10 -70 -19 -118 -21 -107 -2 12 4 69 12 127 9 57 16 108 16 112 0 5 3
6 6 3 3 -4 -3 -64 -13 -135z m-2070 -104 c-6 -6 -7 3 -4 23 4 28 6 29 9 9 2
-13 0 -27 -5 -32z m-36 -76 c-3 -10 -5 -4 -5 12 0 17 2 24 5 18 2 -7 2 -21 0
-30z m2083 -51 c0 -15 -2 -15 -10 -2 -13 20 -13 33 0 25 6 -3 10 -14 10 -23z
m-19 -75 c-10 -9 -11 -8 -5 6 3 10 9 15 12 12 3 -3 0 -11 -7 -18z m-1415 -104
c-4 -16 -10 -43 -14 -62 -4 -19 -12 -36 -18 -38 -12 -4 -59 85 -50 94 3 3 12
-10 20 -28 l16 -34 -4 35 c-3 35 13 59 43 60 10 0 11 -8 7 -27z m-83 -73 c3
-11 1 -20 -4 -20 -5 0 -9 2 -9 4 0 2 -3 11 -6 20 -3 9 -2 16 4 16 5 0 12 -9
15 -20z m-3603 -111 c0 -5 -4 -9 -10 -9 -5 0 -10 7 -10 16 0 8 5 12 10 9 6 -3
10 -10 10 -16z m790 -454 c7 -8 8 -15 2 -15 -5 0 -15 7 -22 15 -7 8 -8 15 -2
15 5 0 15 -7 22 -15z m65 -43 c-3 -3 -11 0 -18 7 -9 10 -8 11 6 5 10 -3 15 -9
12 -12z m2880 -410 c18 -41 33 -168 18 -159 -6 4 -13 38 -16 77 -4 48 -12 80
-26 99 -12 16 -21 37 -21 48 1 15 3 13 15 -7 9 -14 22 -40 30 -58z m25 74 c0
-2 -9 -6 -20 -9 -11 -3 -20 -1 -20 4 0 5 9 9 20 9 11 0 20 -2 20 -4z m197 -62
c-3 -3 -12 -4 -19 -1 -8 3 -5 6 6 6 11 1 17 -2 13 -5z m-193 -190 c22 -8 2
-44 -24 -44 -22 0 -28 35 -7 43 6 3 13 6 14 6 1 1 8 -2 17 -5z m37 -47 c-8 -8
-11 -3 -11 19 1 25 2 27 11 11 8 -14 8 -22 0 -30z m-1172 -24 c12 -14 20 -28
17 -30 -6 -6 -69 32 -74 45 -7 23 37 12 57 -15z m-135 -69 c9 -22 8 -24 -9
-18 -8 4 -15 12 -15 20 0 19 16 18 24 -2z m1411 -154 c3 -5 -1 -10 -9 -10 -9
0 -16 5 -16 10 0 6 4 10 9 10 6 0 13 -4 16 -10z m33 -78 c2 -7 -3 -12 -12 -12
-9 0 -16 7 -16 16 0 17 22 14 28 -4z"/>
<path d="M3900 6025 c-14 -7 -32 -16 -40 -19 -8 -4 -27 -14 -42 -24 -14 -9
-55 -34 -91 -55 -36 -20 -68 -45 -71 -55 -9 -34 -18 -82 -14 -82 2 0 21 22 42
49 26 35 50 55 79 65 56 20 192 39 225 31 23 -5 215 -63 318 -95 17 -6 43 -10
58 -10 26 0 28 3 21 27 -9 36 -50 84 -89 105 -41 21 -173 55 -246 63 -30 3
-71 8 -90 10 -19 2 -46 -2 -60 -10z"/>
<path d="M4140 5852 c-14 -9 -29 -22 -35 -29 -5 -7 -32 -17 -60 -23 -113 -26
-154 -42 -191 -74 -54 -47 -37 -55 25 -12 54 38 120 59 142 45 10 -6 8 -9 -8
-9 -12 0 -25 -4 -28 -10 -4 -6 5 -10 19 -10 45 0 29 -15 -61 -57 -109 -51
-139 -80 -125 -120 5 -16 15 -26 23 -24 8 2 26 6 40 8 19 4 25 10 22 22 -3 11
10 28 36 49 46 37 48 38 54 15 4 -17 5 -17 6 0 1 19 45 25 56 7 3 -5 -1 -10
-10 -10 -9 0 -23 -7 -32 -16 -14 -14 -14 -18 4 -42 11 -15 34 -34 51 -43 33
-17 32 -29 -2 -29 -14 0 -17 -3 -9 -8 7 -4 20 -26 31 -50 16 -37 77 -92 101
-92 20 0 76 36 109 70 60 60 62 65 57 117 -5 41 -4 45 6 26 21 -41 32 -26 26
36 -5 55 -40 141 -57 141 -4 0 -29 21 -56 46 -27 25 -62 56 -79 69 -28 22 -31
22 -55 7z"/>
<path d="M4400 5840 c0 -5 5 -10 11 -10 5 0 7 5 4 10 -3 6 -8 10 -11 10 -2 0
-4 -4 -4 -10z"/>
<path d="M4836 5125 c-3 -8 -2 -25 3 -37 l8 -22 11 21 c12 22 7 53 -8 53 -4 0
-10 -7 -14 -15z"/>
<path d="M4629 5035 c-3 -22 -2 -41 3 -43 4 -2 8 -35 8 -73 0 -57 3 -67 15
-63 17 7 21 54 5 54 -6 0 -4 13 5 30 19 38 19 45 -4 67 -11 10 -21 29 -23 43
-3 19 -5 16 -9 -15z"/>
<path d="M4344 4791 c9 -13 66 -32 66 -21 0 12 -34 30 -55 30 -9 0 -14 -4 -11
-9z"/>
<path d="M4496 4544 c-3 -9 -6 -20 -6 -25 0 -13 58 -40 65 -30 8 14 -12 58
-30 65 -22 8 -22 8 -29 -10z"/>
<path d="M4576 4511 c-4 -7 -5 -15 -2 -18 9 -9 19 4 14 18 -4 11 -6 11 -12 0z"/>
<path d="M5446 5711 c-4 -5 3 -7 14 -4 23 6 26 13 6 13 -8 0 -17 -4 -20 -9z"/>
<path d="M4370 7680 c0 -5 4 -10 9 -10 6 0 13 5 16 10 3 6 -1 10 -9 10 -9 0
-16 -4 -16 -10z"/>
<path d="M4695 7660 c3 -5 10 -10 16 -10 5 0 9 5 9 10 0 6 -7 10 -16 10 -8 0
-12 -4 -9 -10z"/>
<path d="M6131 5874 c0 -11 3 -14 6 -6 3 7 2 16 -1 19 -3 4 -6 -2 -5 -13z"/>
<path d="M6132 5810 c0 -14 2 -19 5 -12 2 6 2 18 0 25 -3 6 -5 1 -5 -13z"/>
<path d="M6122 5730 c0 -19 2 -27 5 -17 2 9 2 25 0 35 -3 9 -5 1 -5 -18z"/>
<path d="M6151 5504 c0 -11 3 -14 6 -6 3 7 2 16 -1 19 -3 4 -6 -2 -5 -13z"/>
<path d="M3032 5410 c0 -14 2 -19 5 -12 2 6 2 18 0 25 -3 6 -5 1 -5 -13z"/>
<path d="M3022 5240 c0 -19 2 -27 5 -17 2 9 2 25 0 35 -3 9 -5 1 -5 -18z"/>
<path d="M2901 4074 c0 -11 3 -14 6 -6 3 7 2 16 -1 19 -3 4 -6 -2 -5 -13z"/>
<path d="M2851 3914 c0 -11 3 -14 6 -6 3 7 2 16 -1 19 -3 4 -6 -2 -5 -13z"/>
<path d="M6390 3893 c0 -5 9 -23 20 -41 11 -18 20 -37 20 -43 0 -6 7 -18 16
-27 15 -15 16 -14 10 6 -9 26 -56 112 -62 112 -2 0 -4 -3 -4 -7z"/>
<path d="M2836 3854 c-4 -20 -5 -38 -3 -40 3 -3 8 11 11 32 4 20 5 38 3 40 -3
3 -8 -11 -11 -32z"/>
<path d="M2818 3745 c-3 -14 -1 -25 3 -25 5 0 9 4 9 9 0 5 3 16 6 25 3 9 2 16
-4 16 -5 0 -12 -11 -14 -25z"/>
<path d="M2674 3302 c-6 -23 -7 -42 -3 -42 11 0 22 43 17 66 -2 10 -8 -1 -14
-24z"/>
<path d="M2717 3321 c-4 -17 -3 -21 5 -13 5 5 8 16 6 23 -3 8 -7 3 -11 -10z"/>
<path d="M2635 3229 c-4 -12 -2 -26 4 -32 8 -8 11 -2 11 21 0 37 -6 41 -15 11z"/>
<path d="M6905 2770 c3 -5 11 -10 16 -10 6 0 7 5 4 10 -3 6 -11 10 -16 10 -6
0 -7 -4 -4 -10z"/>
<path d="M1641 2687 c38 -33 95 -134 110 -197 16 -66 14 -56 23 -110 9 -57 43
-225 61 -310 8 -36 26 -126 41 -200 27 -136 48 -218 65 -255 20 -44 63 -176
94 -295 35 -130 53 -185 54 -161 1 8 -6 40 -14 70 -28 107 -63 357 -75 526 -6
94 -16 190 -21 215 -6 25 -12 56 -13 70 -3 25 -42 169 -56 205 -4 11 -28 70
-53 130 -25 61 -52 126 -60 146 -8 21 -21 41 -29 45 -7 5 -29 29 -48 54 -37
50 -80 89 -95 89 -5 0 2 -10 16 -22z"/>
<path d="M7155 2590 c22 -45 29 -52 20 -20 -4 14 -14 32 -22 40 -12 12 -11 7
2 -20z"/>
<path d="M1528 2273 c10 -4 10 -8 2 -18 -8 -10 -8 -19 -1 -34 6 -11 11 -32 11
-48 0 -15 12 -53 27 -83 14 -30 25 -59 24 -65 0 -5 6 -1 14 9 17 23 19 42 5
51 -5 3 -10 21 -10 38 0 46 -49 157 -69 156 -11 0 -12 -2 -3 -6z"/>
<path d="M1547 1890 c3 -11 1 -20 -4 -20 -5 0 -10 -7 -10 -16 0 -14 2 -14 14
2 15 21 17 40 4 48 -5 4 -7 -3 -4 -14z"/>
<path d="M1540 1800 c0 -5 5 -10 11 -10 5 0 7 5 4 10 -3 6 -8 10 -11 10 -2 0
-4 -4 -4 -10z"/>
<path d="M4031 900 c0 -8 4 -24 9 -35 l9 -20 0 20 c0 11 -4 27 -9 35 -9 13
-10 13 -9 0z"/>
<path d="M3893 868 c-4 -7 -8 -65 -8 -128 0 -121 -16 -196 -40 -186 -14 5 -85
-53 -85 -70 0 -6 -8 -18 -18 -27 -17 -16 -20 -15 -42 8 l-23 25 -15 -21 c-10
-15 -17 -18 -25 -10 -20 20 -36 12 -51 -24 -10 -22 -24 -37 -40 -41 -35 -8
-33 -34 4 -69 17 -16 30 -31 30 -35 0 -3 29 -36 65 -74 50 -52 65 -75 65 -98
0 -39 -19 -76 -30 -58 -5 8 -16 15 -24 16 -12 2 -16 -7 -16 -37 l0 -39 270 0
269 0 7 36 c10 53 -2 232 -19 284 -8 25 -20 81 -27 124 -6 43 -16 88 -20 100
-20 50 -25 64 -40 116 -9 30 -21 54 -27 53 -6 -1 -21 18 -33 42 -12 24 -30 52
-40 63 -10 10 -23 28 -29 40 -13 24 -45 29 -58 10z"/>
<path d="M4284 828 c2 -7 9 -34 16 -59 11 -43 50 -87 50 -56 0 8 -3 17 -7 21
-4 3 -8 13 -9 21 -2 15 -43 85 -50 85 -2 0 -2 -6 0 -12z"/>
<path d="M4310 500 c0 -5 5 -10 10 -10 6 0 10 5 10 10 0 6 -4 10 -10 10 -5 0
-10 -4 -10 -10z"/>
<path d="M4437 237 c-2 -7 -1 -30 3 -52 l8 -40 1 53 c1 52 -2 64 -12 39z"/>
<path d="M6920 35 c0 -19 5 -35 10 -35 6 0 10 16 10 35 0 19 -4 35 -10 35 -5
0 -10 -16 -10 -35z"/>
<path d="M5072 40 c-18 -30 -15 -40 14 -40 22 0 25 4 22 27 -4 33 -19 39 -36
13z"/>
<path d="M7073 35 c-19 -21 -16 -35 7 -35 15 0 20 7 20 25 0 28 -9 31 -27 10z"/>
</g>
</svg>
